<svg width="17" height="17" viewBox="0 0 17 17" fill="none" xmlns="http://www.w3.org/2000/svg">
<path d="M17 8.01054V17H8.50436C6.8445 16.9992 5.22112 16.5134 3.83418 15.6024C2.44723 14.6915 1.35729 13.3951 0.698612 11.8731C0.0399308 10.351 -0.158725 8.66969 0.127112 7.03625C0.41295 5.4028 1.1708 3.88855 2.30731 2.68001C3.44382 1.47147 4.90936 0.621415 6.52341 0.234556C8.13747 -0.152302 9.82954 -0.0590719 11.3912 0.502765C12.9529 1.0646 14.316 2.07051 15.3126 3.39658C16.3091 4.72265 16.8957 6.31098 17 7.96592V8.01054ZM9.20063 4.95833H4.94643V6.375H9.20063V4.95833ZM12.0368 7.79167H4.94643V9.20833H12.0368V7.79167ZM12.0368 10.625H4.94643V12.0417H12.0368V10.625Z" fill="white"/>
</svg>
