<svg width="32" height="23" viewBox="0 0 32 23" fill="none" xmlns="http://www.w3.org/2000/svg">
<path d="M1.29657 2.59314H29.8211C30.165 2.59314 30.4947 2.45653 30.7379 2.21338C30.981 1.97023 31.1176 1.64044 31.1176 1.29657C31.1176 0.952697 30.981 0.62291 30.7379 0.379756C30.4947 0.136603 30.165 0 29.8211 0H1.29657C0.952697 0 0.62291 0.136603 0.379756 0.379756C0.136602 0.62291 0 0.952697 0 1.29657C0 1.64044 0.136602 1.97023 0.379756 2.21338C0.62291 2.45653 0.952697 2.59314 1.29657 2.59314Z" fill="#B1BAD3"/>
<path d="M1.29657 9.07556H19.4485C19.7924 9.07556 20.1222 8.93896 20.3653 8.6958C20.6085 8.45265 20.7451 8.12286 20.7451 7.77899C20.7451 7.43512 20.6085 7.10533 20.3653 6.86218C20.1222 6.61902 19.7924 6.48242 19.4485 6.48242H1.29657C0.952697 6.48242 0.62291 6.61902 0.379756 6.86218C0.136602 7.10533 0 7.43512 0 7.77899C0 8.12286 0.136602 8.45265 0.379756 8.6958C0.62291 8.93896 0.952697 9.07556 1.29657 9.07556Z" fill="#B1BAD3"/>
<path d="M19.4485 19.4482H1.29657C0.952697 19.4482 0.62291 19.5848 0.379756 19.828C0.136602 20.0712 0 20.4009 0 20.7448C0 21.0887 0.136602 21.4185 0.379756 21.6616C0.62291 21.9048 0.952697 22.0414 1.29657 22.0414H19.4485C19.7924 22.0414 20.1222 21.9048 20.3653 21.6616C20.6085 21.4185 20.7451 21.0887 20.7451 20.7448C20.7451 20.4009 20.6085 20.0712 20.3653 19.828C20.1222 19.5848 19.7924 19.4482 19.4485 19.4482Z" fill="#B1BAD3"/>
<path d="M29.8211 12.9658H1.29657C0.952697 12.9658 0.62291 13.1024 0.379756 13.3456C0.136602 13.5887 0 13.9185 0 14.2624C0 14.6063 0.136602 14.936 0.379756 15.1792C0.62291 15.4224 0.952697 15.559 1.29657 15.559H29.8211C30.165 15.559 30.4947 15.4224 30.7379 15.1792C30.981 14.936 31.1176 14.6063 31.1176 14.2624C31.1176 13.9185 30.981 13.5887 30.7379 13.3456C30.4947 13.1024 30.165 12.9658 29.8211 12.9658Z" fill="#B1BAD3"/>
</svg>
